<mxfile host="app.diagrams.net" agent="Mozilla/5.0 (Windows NT 10.0; Win64; x64) AppleWebKit/537.36 (KHTML, like Gecko) Chrome/131.0.0.0 Safari/537.36 Edg/131.0.0.0" version="25.0.3">
  <diagram id="C5RBs43oDa-KdzZeNtuy" name="Page-1">
    <mxGraphModel dx="996" dy="567" grid="1" gridSize="10" guides="1" tooltips="1" connect="1" arrows="1" fold="1" page="1" pageScale="1" pageWidth="827" pageHeight="1169" math="0" shadow="0">
      <root>
        <mxCell id="WIyWlLk6GJQsqaUBKTNV-0" />
        <mxCell id="WIyWlLk6GJQsqaUBKTNV-1" parent="WIyWlLk6GJQsqaUBKTNV-0" />
        <mxCell id="tHY6OjpXt67lXKEQcS3I-3" value="" style="edgeStyle=orthogonalEdgeStyle;rounded=0;orthogonalLoop=1;jettySize=auto;html=1;" edge="1" parent="WIyWlLk6GJQsqaUBKTNV-1" source="tHY6OjpXt67lXKEQcS3I-0" target="tHY6OjpXt67lXKEQcS3I-2">
          <mxGeometry relative="1" as="geometry" />
        </mxCell>
        <mxCell id="tHY6OjpXt67lXKEQcS3I-0" value="Start" style="ellipse;whiteSpace=wrap;html=1;" vertex="1" parent="WIyWlLk6GJQsqaUBKTNV-1">
          <mxGeometry x="354" y="10" width="120" height="80" as="geometry" />
        </mxCell>
        <mxCell id="tHY6OjpXt67lXKEQcS3I-1" value="Stop" style="ellipse;whiteSpace=wrap;html=1;" vertex="1" parent="WIyWlLk6GJQsqaUBKTNV-1">
          <mxGeometry x="354" y="770" width="120" height="80" as="geometry" />
        </mxCell>
        <mxCell id="tHY6OjpXt67lXKEQcS3I-5" value="" style="edgeStyle=orthogonalEdgeStyle;rounded=0;orthogonalLoop=1;jettySize=auto;html=1;" edge="1" parent="WIyWlLk6GJQsqaUBKTNV-1" source="tHY6OjpXt67lXKEQcS3I-2" target="tHY6OjpXt67lXKEQcS3I-4">
          <mxGeometry relative="1" as="geometry" />
        </mxCell>
        <mxCell id="tHY6OjpXt67lXKEQcS3I-2" value="Nhập a, b, c" style="shape=parallelogram;perimeter=parallelogramPerimeter;whiteSpace=wrap;html=1;fixedSize=1;" vertex="1" parent="WIyWlLk6GJQsqaUBKTNV-1">
          <mxGeometry x="354" y="130" width="120" height="60" as="geometry" />
        </mxCell>
        <mxCell id="tHY6OjpXt67lXKEQcS3I-7" value="" style="edgeStyle=orthogonalEdgeStyle;rounded=0;orthogonalLoop=1;jettySize=auto;html=1;" edge="1" parent="WIyWlLk6GJQsqaUBKTNV-1" source="tHY6OjpXt67lXKEQcS3I-4" target="tHY6OjpXt67lXKEQcS3I-6">
          <mxGeometry relative="1" as="geometry" />
        </mxCell>
        <mxCell id="tHY6OjpXt67lXKEQcS3I-4" value="Delta&amp;nbsp; = b^2 - 4ac" style="rounded=1;whiteSpace=wrap;html=1;" vertex="1" parent="WIyWlLk6GJQsqaUBKTNV-1">
          <mxGeometry x="354" y="230" width="120" height="60" as="geometry" />
        </mxCell>
        <mxCell id="tHY6OjpXt67lXKEQcS3I-9" value="" style="edgeStyle=orthogonalEdgeStyle;rounded=0;orthogonalLoop=1;jettySize=auto;html=1;" edge="1" parent="WIyWlLk6GJQsqaUBKTNV-1" source="tHY6OjpXt67lXKEQcS3I-6" target="tHY6OjpXt67lXKEQcS3I-8">
          <mxGeometry relative="1" as="geometry" />
        </mxCell>
        <mxCell id="tHY6OjpXt67lXKEQcS3I-12" value="" style="edgeStyle=orthogonalEdgeStyle;rounded=0;orthogonalLoop=1;jettySize=auto;html=1;" edge="1" parent="WIyWlLk6GJQsqaUBKTNV-1" source="tHY6OjpXt67lXKEQcS3I-6" target="tHY6OjpXt67lXKEQcS3I-11">
          <mxGeometry relative="1" as="geometry" />
        </mxCell>
        <mxCell id="tHY6OjpXt67lXKEQcS3I-6" value="Delta &amp;lt; 0 ?" style="rhombus;whiteSpace=wrap;html=1;" vertex="1" parent="WIyWlLk6GJQsqaUBKTNV-1">
          <mxGeometry x="346" y="330" width="136" height="80" as="geometry" />
        </mxCell>
        <mxCell id="tHY6OjpXt67lXKEQcS3I-18" style="edgeStyle=orthogonalEdgeStyle;rounded=0;orthogonalLoop=1;jettySize=auto;html=1;exitX=1;exitY=0.5;exitDx=0;exitDy=0;exitPerimeter=0;entryX=1;entryY=0.5;entryDx=0;entryDy=0;" edge="1" parent="WIyWlLk6GJQsqaUBKTNV-1" source="tHY6OjpXt67lXKEQcS3I-8" target="tHY6OjpXt67lXKEQcS3I-1">
          <mxGeometry relative="1" as="geometry">
            <Array as="points">
              <mxPoint x="810" y="370" />
              <mxPoint x="810" y="810" />
            </Array>
          </mxGeometry>
        </mxCell>
        <mxCell id="tHY6OjpXt67lXKEQcS3I-8" value="Phương trình vô nghiệm" style="strokeWidth=2;html=1;shape=mxgraph.flowchart.display;whiteSpace=wrap;" vertex="1" parent="WIyWlLk6GJQsqaUBKTNV-1">
          <mxGeometry x="580" y="340" width="100" height="60" as="geometry" />
        </mxCell>
        <mxCell id="tHY6OjpXt67lXKEQcS3I-10" value="Đúng" style="text;html=1;align=center;verticalAlign=middle;whiteSpace=wrap;rounded=0;" vertex="1" parent="WIyWlLk6GJQsqaUBKTNV-1">
          <mxGeometry x="500" y="340" width="60" height="30" as="geometry" />
        </mxCell>
        <mxCell id="tHY6OjpXt67lXKEQcS3I-16" value="" style="edgeStyle=orthogonalEdgeStyle;rounded=0;orthogonalLoop=1;jettySize=auto;html=1;" edge="1" parent="WIyWlLk6GJQsqaUBKTNV-1" source="tHY6OjpXt67lXKEQcS3I-11" target="tHY6OjpXt67lXKEQcS3I-15">
          <mxGeometry relative="1" as="geometry" />
        </mxCell>
        <mxCell id="tHY6OjpXt67lXKEQcS3I-22" value="" style="edgeStyle=orthogonalEdgeStyle;rounded=0;orthogonalLoop=1;jettySize=auto;html=1;" edge="1" parent="WIyWlLk6GJQsqaUBKTNV-1" source="tHY6OjpXt67lXKEQcS3I-11" target="tHY6OjpXt67lXKEQcS3I-20">
          <mxGeometry relative="1" as="geometry" />
        </mxCell>
        <mxCell id="tHY6OjpXt67lXKEQcS3I-11" value="Delta = 0 ?" style="rhombus;whiteSpace=wrap;html=1;" vertex="1" parent="WIyWlLk6GJQsqaUBKTNV-1">
          <mxGeometry x="346" y="450" width="136" height="80" as="geometry" />
        </mxCell>
        <mxCell id="tHY6OjpXt67lXKEQcS3I-13" value="Sai" style="text;html=1;align=center;verticalAlign=middle;whiteSpace=wrap;rounded=0;" vertex="1" parent="WIyWlLk6GJQsqaUBKTNV-1">
          <mxGeometry x="346" y="410" width="60" height="30" as="geometry" />
        </mxCell>
        <mxCell id="tHY6OjpXt67lXKEQcS3I-19" style="edgeStyle=orthogonalEdgeStyle;rounded=0;orthogonalLoop=1;jettySize=auto;html=1;exitX=1;exitY=0.5;exitDx=0;exitDy=0;exitPerimeter=0;entryX=1;entryY=0.5;entryDx=0;entryDy=0;" edge="1" parent="WIyWlLk6GJQsqaUBKTNV-1" source="tHY6OjpXt67lXKEQcS3I-14" target="tHY6OjpXt67lXKEQcS3I-1">
          <mxGeometry relative="1" as="geometry" />
        </mxCell>
        <mxCell id="tHY6OjpXt67lXKEQcS3I-14" value="2 nghiệm kép x" style="strokeWidth=2;html=1;shape=mxgraph.flowchart.display;whiteSpace=wrap;" vertex="1" parent="WIyWlLk6GJQsqaUBKTNV-1">
          <mxGeometry x="690" y="460" width="100" height="60" as="geometry" />
        </mxCell>
        <mxCell id="tHY6OjpXt67lXKEQcS3I-17" value="" style="edgeStyle=orthogonalEdgeStyle;rounded=0;orthogonalLoop=1;jettySize=auto;html=1;" edge="1" parent="WIyWlLk6GJQsqaUBKTNV-1" source="tHY6OjpXt67lXKEQcS3I-15" target="tHY6OjpXt67lXKEQcS3I-14">
          <mxGeometry relative="1" as="geometry" />
        </mxCell>
        <mxCell id="tHY6OjpXt67lXKEQcS3I-15" value="x = -b / 2a" style="rounded=1;whiteSpace=wrap;html=1;" vertex="1" parent="WIyWlLk6GJQsqaUBKTNV-1">
          <mxGeometry x="520" y="460" width="120" height="60" as="geometry" />
        </mxCell>
        <mxCell id="tHY6OjpXt67lXKEQcS3I-25" value="" style="edgeStyle=orthogonalEdgeStyle;rounded=0;orthogonalLoop=1;jettySize=auto;html=1;" edge="1" parent="WIyWlLk6GJQsqaUBKTNV-1" source="tHY6OjpXt67lXKEQcS3I-20" target="tHY6OjpXt67lXKEQcS3I-24">
          <mxGeometry relative="1" as="geometry" />
        </mxCell>
        <mxCell id="tHY6OjpXt67lXKEQcS3I-20" value="x1 = -b+sqrt(delta)/2a&lt;div&gt;x2 = -b-sqrt(delta)/2a&lt;/div&gt;" style="rounded=1;whiteSpace=wrap;html=1;" vertex="1" parent="WIyWlLk6GJQsqaUBKTNV-1">
          <mxGeometry x="354" y="585" width="120" height="60" as="geometry" />
        </mxCell>
        <mxCell id="tHY6OjpXt67lXKEQcS3I-23" value="Sai" style="text;html=1;align=center;verticalAlign=middle;whiteSpace=wrap;rounded=0;" vertex="1" parent="WIyWlLk6GJQsqaUBKTNV-1">
          <mxGeometry x="346" y="540" width="60" height="30" as="geometry" />
        </mxCell>
        <mxCell id="tHY6OjpXt67lXKEQcS3I-26" value="" style="edgeStyle=orthogonalEdgeStyle;rounded=0;orthogonalLoop=1;jettySize=auto;html=1;" edge="1" parent="WIyWlLk6GJQsqaUBKTNV-1" source="tHY6OjpXt67lXKEQcS3I-24" target="tHY6OjpXt67lXKEQcS3I-1">
          <mxGeometry relative="1" as="geometry" />
        </mxCell>
        <mxCell id="tHY6OjpXt67lXKEQcS3I-24" value="2 nghiệm phân biệt x1, x2" style="strokeWidth=2;html=1;shape=mxgraph.flowchart.display;whiteSpace=wrap;" vertex="1" parent="WIyWlLk6GJQsqaUBKTNV-1">
          <mxGeometry x="364" y="670" width="100" height="60" as="geometry" />
        </mxCell>
      </root>
    </mxGraphModel>
  </diagram>
</mxfile>
